<svg height="157" viewBox="0 0 624 157" width="624" xmlns="http://www.w3.org/2000/svg" xmlns:xlink="http://www.w3.org/1999/xlink"><mask id="a" fill="#fff"><path d="m0 156h361.59375 258.89025v-155.6h-620.484z" fill="#fff" fill-rule="evenodd"/></mask><mask id="b" fill="#fff"><path d="m1.63483279.91324675h7.74295082v11.55428575h-7.74295082z" fill="#fff" fill-rule="evenodd"/></mask><mask id="c" fill="#fff"><path d="m.63391475.9147013h9.96511475v11.5528312h-9.96511475z" fill="#fff" fill-rule="evenodd"/></mask><mask id="d" fill="#fff"><path d="m1.81277377.91283117h11.04996723v11.55470133h-11.04996723z" fill="#fff" fill-rule="evenodd"/></mask><g fill="none" fill-rule="evenodd"><g fill="#fff" transform="translate(0 -.4)"><path d="m438.8836 33.2008c-.4.4-1.2 1.6-1.2 3.6v10.8c0 .8-.4 1.6-.8 2.4-.4.4-2 2-2.4 2h1.2c.4-.4 3.6-3.2 4-3.6s1.6-1.6 1.6-3.6v-10.4c0-1.6.8-2.4 1.2-2.8s1.6-1.6 2-1.6h-1.2c-.4-.4-4 2.8-4.4 3.2"/><path d="m430.8836 72.8004 4 3.6h2.8c2.8 0 5.2-1.2 6.8-2.8s2.4-4 2.4-6v-5.6c0-2-1.2-3.2-1.6-3.2l-1.2-1.2v4.4s1.2 1.2 1.6 1.6c1.2 1.2 1.2 3.6-2.4 7.2-.8.8-2.4 2.4-5.2 2.4h-7.2z"/><path d="m442.0828 49.5992c-.4.4-.8 1.6-.8 2.8v2h2c.8 0 1.6-.8 2.4-1.2v-2s.4.8 1.2 1.2c.8-.8 2.4-2.8 4-2.8 2.8 0 2 3.6.8 4.4-.4.4-2 2-2.4 2.4-1.2 1.2-3.6.8-3.6-2.4 0 0-2.4 2.4-2.8 2.4-.396.4-1.6 1.6-1.6 1.6v5.6c0 2.8-.796 3.6-1.6 4.4-.4.4-3.196 2.8-4 3.6h-1.196s2-1.6 2.396-2c.4-.4.8-1.2.8-2.8v-8.8h-14c-4.8 0-6-5.2-6-6.8v-5.2c0-.8-.4-2.4-1.6-2.8h1.2s1.204.4 1.204 3.6v4c0 1.6 1.196 3.6 3.196 3.6h15.6c0-.4.4-2 1.204-2.8.396-.4 4-3.6 4-4h1.196c.4 0-1.196 1.6-1.6 2m4.8 3.2s1.2 1.2 1.604 1.6c1.596 1.2 2 0 1.196-1.6 0-.4-1.196-1.2-2.8 0"/><path d="m430.4848 62.8004c0 .8-2.404 2.8-2.404 2.8 0-.8-.8-1.6-2.8-3.6l2.8-2.8c1.604 2.4 2.404 2.8 2.404 3.6"/><path d="m434.8836 32.4c.4.4 1.6 2 1.2 2.8s-1.6 1.6-1.6 1.6c0-.4-.8-1.2-.8-1.2v2.8c0 1.2-.4 1.6-.4 1.6s2 2 2 4.8v2.8c0 .4 0 .8-.4 1.6 0 .4-2.4 2-2.4 2.4-.4.4-1.2.8-1.6.8h-7.2c-1.2 0-2.4-.8-2.4-2v-2.8c.4.4.8.8 1.6.8s1.6-.4 1.6-.8c.4-.4 5.6-6 5.6-6s-2.4-2.4-4-3.6c-.8-.4-2 0-2 .8-.4 2.4 0 5.6 0 5.6s-1.6-1.6-2-2c-.8-.8-.8-2.8 0-3.6 0 0 1.6-2 3.6-2h2.8c2 0 4 2 4 2s.4-.4.4-.8v-3.6c-1.6-1.6-1.6-3.2-.8-3.6 1.2-1.2 1.6-1.6 1.6-1.6s-.4 1.6 1.2 3.2m-9.2 14.8c-.8.8-.8.8-1.6 1.2h8.4c2 0 1.6-1.2 1.2-2-.8-1.6-3.2-4-3.2-4z"/><path d="m416.0828 54.8004h-1.2s1.604.8 1.604 2.8v6.8c0 4.4 3.596 8.4 8 8.4h3.596c2 0 2.8-.4 4.404-1.6.396-.4 1.196-1.2 1.196-1.2.804-.8 1.6-1.6 1.6-3.6v-2c0-2-1.2-2.8-1.6-3.2s-1.196-1.2-1.196-1.2v4.4s.796.8 1.196 1.2c2 1.6.4 4-1.196 4h-8c-3.204 0-6.804-2.4-6.804-6.8v-3.6c-.4-4.4-1.6-4.4-1.6-4.4"/><path d="m424.8836 62.8004c0 .8-2.4 2.8-2.4 2.8 0-.8-.8-1.6-2.4-3.6l2.8-2.8c1.2 2.4 2 2.8 2 3.6"/><path d="m421.282 91.6012v-7.6c0-3.2-2.4-3.6-4.4-3.6-2.396 0-3.196 1.996-3.6 2.796-.4-1.996-2.4-2.796-4-2.796-2.796 0-3.596 2.796-3.596 2.796s0-2.796-2.404-2.796h-2.4s1.2.4 1.2 2.796v8.804c0 2.8 1.2 2.8 1.2 2.8h4s-1.596-1.2-1.596-2.8v-7.604c0-.396.8-1.596 2.396-1.596.8 0 2 .8 2 2v7.2c0 2.8 1.2 2.8 1.2 2.8h4s-1.596-.8-1.596-2.8v-7.604c0-.396.8-1.596 2-1.596 1.196 0 2 .8 2 2v7.2c0 2.8 1.196 2.8 1.196 2.8h4s-1.6-1.604-1.6-3.2"/><path d="m427.6844 91.6012c0 2 1.596 2.796 1.596 2.796h-4s-1.196 0-1.196-2.796v-8.8c0-2.4-1.2-2.8-1.2-2.8h2.396c.804 0 2.404 0 2.404 3.196z"/><path d="m439.6844 81.2008s-.404-1.2-2-1.2c-2.404 0-2.8 2.8-2.8 2.8 0-2.4-.8-2.8-2.4-2.8h-2.4s1.196.4 1.196 2.8v8.8c0 2.796 1.204 2.796 1.204 2.796h4s-1.6-1.196-1.6-2.796v-7.204c0-.796.396-1.196.8-1.596 1.2-.8 2.8-.404 4 .4z"/><path d="m457.282 81.5992c1.204 0 2.404.4 2.404.4v-2h-3.2v-3.2s-.8 1.6-2.404 2.8c-1.2.8-3.2 2-3.2 2h2.4v10c0 2.8 1.204 2.8 1.204 2.8h3.596s-1.596-.8-1.596-2.8v-10z"/><path d="m468.8836 85.9996c-2 2.4-4 2-5.2 3.6 0 0 .4 2.4 2 2.8.4.4 2.8 1.2 4.4-1.6v2.4s-.8 1.2-4 1.2c-3.6 0-6.4-2.8-6.4-6.8s2-7.6 6-7.6 6 2.8 3.2 6m-2.4-1.2c.8-1.2 1.2-4-1.2-4s-2 6.8-2 6.8c.8-.8 2-.8 3.2-2.8"/><path d="m426.0828 78.8004c1.2 0 1.6-.8 1.6-1.6s-.8-1.6-1.6-1.6c-1.2 0-1.596.8-1.596 1.6s.396 1.6 1.596 1.6"/><path d="m477.282 90.398c0 1.204-.796 2.404-2.796 2.404s-2.8-2-2.8-2v2.396s1.596.8 3.596.8c2.8 0 5.204-2 5.204-4.8 0-.8-.404-2-.8-2.396-.804-1.2-2.404-2-3.604-2.804-1.596-.8-1.596-3.196 1.2-2.796 2 0 2.8 1.996 2.8 1.996v-2.396s-1.596-1.204-3.596-1.204c-2.404 0-4.404 1.604-4.404 3.6 0 1.604.8 2.8 2 4 .404.404 1.2.8 2 1.2.8.404 1.2 1.204 1.2 2"/><path d="m444.0828 92.8004c-1.2 0-2-.8-2-2 0-3.2 2.8-4 3.6-4.8v6s-.4.8-1.6.8m2-9.6c0 1.196-1.2 2-2 2.4-2.4 1.2-5.2 2-5.2 5.2 0 2.4 1.604 3.596 4 3.596 1.604 0 2.8-.796 2.8-1.596.4 1.596 1.2 1.596 1.2 1.596h3.604s-1.604-.796-1.604-2.796v-8c0-2-2-3.6-4.396-3.6-2 0-3.604 1.2-3.604 1.2v2.4s.8-2 2.8-2 2.4.796 2.4 1.6"/><path d="m529.6844 75.2008v3.6l4-3.6z"/><path d="m526.0828 75.2008h-6.8c-4.796 0-9.2 3.6-9.2 9.6 0 5.596 4.404 9.596 9.6 9.596 5.6 0 9.6-4.796 9.6-10v-5.596h-3.2v5.596c0 3.204-2 6.804-6.4 6.804-3.6 0-6.4-2.804-6.4-6.4 0-2.8 2-6.4 6.4-6.4h5.6l3.6-3.2v-6h-3.2v6zm18-.8c-3.2 0-6 1.6-7.2 3.6v-2.8h-3.2v18.8h3.6v-11.604c0-3.196 3.6-4.796 6-4.796 4 0 4.8 2.4 4.8 5.6v10.8h3.6v-11.2c-.4-6.8-4-8.4-7.6-8.4zm36.404 16.8c-1.604 0-2-1.2-2-2.804v-10.396h5.596v-3.2h-5.596v-6h-3.604v20c0 2 .8 5.2 5.2 5.2 1.6 0 3.2-.4 4.404-.8l-.804-3.2c-1.6.8-2.8 1.2-3.196 1.2zm22.796-10.4c0-2.8-2.4-6-8.796-6-4 0-7.604 2-7.604 2l1.604 2.4s2.396-1.6 6-1.6c5.196 0 5.596 2.4 5.596 3.2v.4s-4 .4-6 .4c-3.2.4-5.2 1.2-6.4 2.4-1.196 1.2-1.6 2.8-1.6 4 0 4 3.6 6 8 6 3.2 0 6.404-1.604 6.404-1.604v1.204h3.196v-12.8zm-9.6 10.8c-1.196 0-4.4-.4-4.4-3.6 0-2.4 2.8-3.2 4.8-3.2 1.6 0 6-.404 6-.404v4.804c-1.2 1.6-4 2.4-6.4 2.4zm-22-10.8c0-3.2-2.8-6-8.8-6-3.6 0-7.6 2-7.6 2l1.6 2.4s2.4-1.6 6-1.6c5.2 0 5.604 2.4 5.604 3.2v.4s-4 .4-6 .4c-3.604.4-8.404 2-8.404 6.4 0 4 3.6 6 8 6 3.2 0 6.404-1.604 6.404-1.604v1.204h3.196zm-10 10.8c-1.196 0-4.4-.4-4.4-3.6 0-2.4 2.8-3.2 4.8-3.2 1.6 0 6-.404 6-.404v4.804c-1.2 1.6-3.596 2.4-6.4 2.4z"/><path d="m397.282 92.398h-4.4c-1.196 0-1.196-1.2-1.196-2v-6h2c1.196 0 2.8 0 4 .8 0 0-1.2-2.396-4-2.396h-2v-1.204-.796s0-1.6-.404-2h2.8c2.404 0 4.404 0 6.404 1.196 0 0-.404-3.196-5.204-3.196h-9.2s1.604 1.196 1.604 4v11.196c0 2.804 1.196 2.804 1.196 2.804h3.2 1.604 4.396c2 0 2.8-1.2 2.8-2.404v-1.2c-.396 0-1.196 1.2-3.6 1.2"/><path d="m315.684 156h3.2v-155.6h-3.2z" mask="url(#a)"/><path d="m165.6824 52.2028v-9.216l104.652-19.552z" mask="url(#a)"/><path d="m26.352 76.9216h-2.584c-9.84 0-14.72 2.004-14.72 6.836 0 3.632 4.172 5.092 7.712 5.092 3.416.156 6.772-.904 9.468-3.008zm0 18.468v-2.672c-3.388 2.612-7.572 3.952-11.844 3.836-9.544 0-14.172-5.712-14.172-12.712 0-8.928 8.924-13.84 20.548-13.84h5.636c0-4.548-1.924-6.172-7.548-6.172-3.98-.156-7.952.56-11.636 2.08l-3-6.544c4.252-2.028 8.928-3.028 13.636-2.916 10.548 0 17.004 3.08 17.004 11.26v27.632z" mask="url(#a)"/><path d="m56.0356 96.476-18.176-38.936h9.544l8.336 18.26c.264.588.48 1.208.632 1.836.148-.66.356-1.3.62-1.924l8.34-18.172h9.176z" mask="url(#a)"/><path d="m80.676 95.724h8.628v-37.816h-8.628z" mask="url(#a)"/><path d="m122.114 77.2576h-2.46c-9.836 0-14.712 2.008-14.712 6.836 0 3.632 4.168 5.084 7.708 5.084 3.412.16 6.772-.896 9.464-3zm0 18.468v-2.704c-3.388 2.596-7.568 3.956-11.832 3.828-9.56 0-14.18-5.708-14.18-12.708 0-8.932 8.92-13.84 20.552-13.84h5.628c0-4.548-1.916-6.18-7.548-6.18-3.984-.144-7.944.56-11.628 2.092l-3.004-6.468c4.256-2.02 8.928-3.024 13.628-2.916 10.552 0 17.012 3.084 17.012 11.256v27.64z" mask="url(#a)"/><path d="m155.9712 96.2732c-8.636 0-14.096-1.72-14.096-12.844v-17.516h-5.208v-8.004h5.168v-14.048h8.672v14.048h6.664v8.004h-6.664v17.268c0 4.172 1.46 4.912 5.376 4.912h1.544v8.344h-1.456" mask="url(#a)"/><path d="m165.684 95.724h8.632v-37.816h-8.632z" mask="url(#a)"/><path d="m200.2488 64.8668c-5.848.132-10.484 4.976-10.356 10.824.004.296.024.596.056.892 0 7.54 3.836 12.26 10.176 12.26 7.712 0 10.92-5.256 10.92-12.088.74-5.804-3.364-11.104-9.16-11.844-.56-.072-1.124-.1-1.68-.08m-.08 32.06c-10.384.272-19.028-7.9-19.312-18.28-.02-.664-.004-1.324.048-1.984-.168-10.728 8.404-19.56 19.136-19.72 10.728-.164 19.56 8.408 19.724 19.144.712 10.768-7.448 20.08-18.224 20.8-.42.024-.832.04-1.248.04" mask="url(#a)"/><path d="m250.0672 95.726v-23.012c0-4.628-2.292-7.92-7.168-7.92-5.2.28-9.176 4.72-8.892 9.916.008.216.028.428.052.628v20.388h-8.672v-37.816h8.632v4.544c2.364-3.592 6.404-5.72 10.712-5.628 7.188-.516 13.436 4.892 13.952 12.084.048.724.04 1.452-.024 2.18v24.636z" mask="url(#a)"/><path d="m13.9284 30.1872c-.296-.556-.676-1.06-1.128-1.5-.488-.448-1.052-.804-1.668-1.04-2.084-.776-4.416-.412-6.168.956-.972.868-1.62 2.048-1.836 3.336h11.424c-.116-.62-.328-1.204-.624-1.752zm-11.004 4.172c.02.908.184 1.812.5 2.664.272.78.688 1.508 1.248 2.132.556.604 1.244 1.084 2.004 1.416.836.368 1.744.552 2.664.536 1.188.028 2.364-.196 3.46-.664.98-.464 1.884-1.08 2.668-1.832l1.876 1.832c-.964.94-2.06 1.728-3.248 2.332-1.516.74-3.196 1.104-4.88 1.044-1.332.024-2.652-.228-3.88-.748-1.088-.468-2.076-1.164-2.876-2.04-.812-.904-1.44-1.948-1.836-3.092-.424-1.244-.636-2.556-.624-3.876 0-1.2.208-2.408.624-3.544.388-1.1.98-2.116 1.752-3.004.796-.872 1.756-1.568 2.836-2.04 1.18-.516 2.468-.764 3.752-.748 1.28-.024 2.548.244 3.712.792 1.048.504 1.968 1.228 2.708 2.128.756.904 1.324 1.956 1.672 3.084.368 1.204.564 2.452.58 3.708z" mask="url(#a)"/><path d="m44.112 43.406v-11.724c.072-1.108-.268-2.208-.956-3.08-.676-.764-1.66-1.18-2.676-1.128-.684.008-1.364.152-2.004.42-.604.248-1.152.612-1.62 1.08-.456.456-.824.992-1.084 1.58-.272.608-.412 1.264-.416 1.924v10.928h-2.88v-11.724c.068-1.104-.256-2.192-.912-3.08-.712-.78-1.74-1.2-2.792-1.128-.696 0-1.372.14-2.004.42-.612.248-1.164.612-1.628 1.08-.456.476-.82 1.02-1.084 1.632-.268.596-.416 1.248-.42 1.912v10.888h-2.872v-18.096h3.004v2.456c.568-.892 1.352-1.624 2.288-2.124 2.12-1.152 4.684-1.152 6.8 0 .88.58 1.58 1.4 2 2.372.7-1.016 1.648-1.832 2.752-2.372 1.06-.564 2.252-.872 3.456-.876.94-.028 1.876.144 2.756.5.74.296 1.396.768 1.916 1.376.496.596.868 1.296 1.084 2.04.24.828.348 1.684.332 2.544v12.092z" mask="url(#a)"/><path d="m51.028 43.404h2.88v-18.096h-2.88z" mask="url(#a)"/><path d="m68.0828 28.5152c-.736-.62-1.664-.976-2.624-1-.584-.004-1.164.16-1.668.456-.536.328-1.004.756-1.376 1.26-.408.548-.716 1.176-.92 1.832-.228.712-.332 1.46-.328 2.208v10.14h-2.88v-18.1h3v2.5c.488-.868 1.18-1.612 2.004-2.168.828-.552 1.796-.848 2.788-.832 1.3-.092 2.576.344 3.552 1.204z" mask="url(#a)"/><path d="m82.5496 34.062h-2.46c-1.876-.096-3.76.216-5.504.916-1.2.548-1.94 1.776-1.872 3.088-.056.972.416 1.904 1.248 2.42.872.54 1.888.816 2.916.792 1.06.02 2.112-.184 3.088-.584.92-.404 1.792-.92 2.584-1.54zm0 9.348v-1.72c-.824.692-1.752 1.244-2.752 1.628-1.104.428-2.276.648-3.464.628-1.752.1-3.48-.468-4.832-1.588-1.176-1.06-1.824-2.584-1.792-4.172-.068-1.964.936-3.812 2.624-4.832.944-.568 1.968-.976 3.044-1.208 1.3-.296 2.624-.432 3.964-.412h3.248v-.8c.16-1.096-.304-2.192-1.208-2.828-1-.496-2.1-.724-3.208-.668-1.904-.068-3.792.332-5.504 1.168l-1.044-2.212c.912-.54 1.92-.924 2.96-1.128 1.108-.284 2.236-.452 3.38-.5 1.972-.144 3.94.34 5.624 1.376 1.3.984 2.004 2.548 1.88 4.172v13.172z" mask="url(#a)"/><path d="m96.1004 43.488h-.792c-1.368.068-2.712-.312-3.836-1.084-1.052-.964-1.58-2.376-1.416-3.792v-10.596h-2.672v-2.704h2.672v-5.252h2.876v5.252h3.416v2.704h-3.416v10.508c0 1.472.832 2.212 2.5 2.212h.96v2.712z" mask="url(#a)"/><path d="m112.1548 30.1872c-.296-.556-.676-1.06-1.124-1.5-.488-.448-1.052-.804-1.664-1.04-2.092-.776-4.424-.412-6.18.956-.968.868-1.612 2.048-1.832 3.336h11.424c-.124-.62-.332-1.204-.624-1.752zm-11.012 4.172c.02.908.188 1.812.5 2.664.272.78.7 1.508 1.252 2.132.556.604 1.24 1.084 2 1.416.84.368 1.748.552 2.672.536 1.18.028 2.36-.196 3.456-.664.976-.464 1.884-1.08 2.672-1.832l1.876 1.832c-.964.94-2.06 1.728-3.248 2.332-1.52.74-3.2 1.104-4.888 1.044-1.324.024-2.644-.228-3.876-.748-1.092-.468-2.076-1.164-2.876-2.04-.816-.9-1.436-1.948-1.832-3.092-.428-1.244-.644-2.556-.628-3.876-.008-1.176.196-2.348.588-3.456.396-1.108 1.008-2.132 1.788-3.004.796-.872 1.76-1.572 2.836-2.044 1.184-.508 2.468-.768 3.752-.748 1.28-.032 2.552.248 3.712.792 1.048.5 1.972 1.228 2.708 2.124.756.908 1.324 1.96 1.668 3.088.372 1.2.572 2.448.588 3.708z" mask="url(#a)"/><path d="m129.9968 40.6912c-.332.636-.784 1.208-1.332 1.668-.6.492-1.272.876-2 1.12-.764.272-1.568.42-2.38.424-1.176 0-2.352-.2-3.46-.588-1.052-.348-2.044-.868-2.916-1.54l1.54-2.208c.7.56 1.488.992 2.336 1.292.76.28 1.564.436 2.372.452.432.068.864.068 1.292 0 .412-.104.792-.288 1.128-.536.316-.228.588-.504.796-.832.192-.328.292-.708.292-1.088.016-.428-.084-.868-.292-1.248-.232-.364-.528-.672-.88-.92-.4-.272-.836-.492-1.292-.664l-1.54-.544-1.96-1.124c-.624-.268-1.216-.62-1.748-1.048-.512-.408-.936-.92-1.256-1.504-.348-.664-.524-1.408-.5-2.164-.008-.712.16-1.412.5-2.04.324-.612.776-1.14 1.332-1.544.576-.412 1.208-.736 1.88-.956.712-.232 1.46-.348 2.208-.336 1.004.008 2 .152 2.956.416 1.036.288 1.996.764 2.84 1.42l-1.336 2.208c-.664-.488-1.412-.868-2.208-1.124-.74-.228-1.512-.344-2.288-.332-.72 0-1.424.184-2.048.544-.636.34-1.016 1.024-.952 1.744-.028.74.356 1.424.996 1.796.852.504 1.768.912 2.708 1.212l2.004.828c.656.3 1.268.676 1.832 1.132.548.436 1.008.996 1.336 1.624.352.724.524 1.528.496 2.332.008.736-.168 1.468-.496 2.128" mask="url(#a)"/><path d="m122.866 128.3356v-2.68c-.56.976-1.364 1.788-2.336 2.336-1.056.592-2.248.9-3.456.876-1.868.116-3.696-.548-5.052-1.836-1.22-1.36-1.852-3.132-1.74-4.96v-12.212h2.948v11.796c-.024 1.188.376 2.336 1.136 3.252.828.904 2.012 1.388 3.244 1.328.768.016 1.524-.156 2.212-.492.632-.328 1.204-.792 1.668-1.336.448-.548.804-1.172 1.044-1.836.236-.628.36-1.284.376-1.964v-10.748h2.956v18.508z" mask="url(#a)"/><path d="m142.9224 128.3356v-11.772c.048-1.172-.34-2.328-1.088-3.244-.852-.868-2.032-1.328-3.252-1.248-.796-.024-1.58.14-2.292.5-.632.328-1.204.788-1.664 1.336-.444.528-.784 1.14-1.004 1.78-.216.64-.332 1.296-.332 1.968v10.672h-2.96v-18.468h2.96v2.664c.552-.992 1.38-1.812 2.376-2.376 1.028-.584 2.188-.884 3.376-.868 1.852-.1 3.656.564 5.004 1.828 1.28 1.312 1.952 3.088 1.876 4.924v12.304z" mask="url(#a)"/><path d="m149.968 128.368h2.96v-18.508h-2.96z" mask="url(#a)"/><path d="m164.5964 129.156-8.716-19.296h3.216l5.5 12.584 5.588-12.584h3.088z" mask="url(#a)"/><path d="m188.448 115.0308c-.304-.58-.7-1.092-1.168-1.548-.5-.468-1.076-.836-1.704-1.084-2.16-.728-4.544-.284-6.296 1.172-.996.888-1.66 2.1-1.876 3.412h11.716c-.12-.616-.336-1.216-.628-1.788zm-11.256 4.164c.02.936.188 1.868.5 2.752.284.796.724 1.536 1.292 2.168.572.62 1.272 1.12 2.048 1.464.868.372 1.808.552 2.748.536 1.212.04 2.424-.184 3.544-.664 1.012-.476 1.936-1.108 2.756-1.88l1.912 1.88c-.972.956-2.084 1.752-3.296 2.376-1.552.752-3.272 1.112-5 1.04-1.428.048-2.852-.228-4.164-.796-1.048-.476-1.98-1.156-2.756-2-.832-.924-1.468-1.992-1.876-3.156-.472-1.352-.7-2.768-.668-4.18-.004-1.236.208-2.46.628-3.62.412-1.132 1.032-2.156 1.832-3.052.808-.916 1.8-1.632 2.92-2.124 1.228-.456 2.532-.636 3.836-.54 1.304-.024 2.604.24 3.796.788 1.056.516 1.996 1.26 2.748 2.172.776.928 1.356 2.008 1.712 3.164.388 1.22.592 2.508.628 3.804z" mask="url(#a)"/><path d="m205.4596 113.1092c-.74-.648-1.68-1.024-2.672-1.04-.596-.008-1.184.148-1.708.46-.552.336-1.032.776-1.412 1.292-.428.568-.748 1.208-.964 1.872-.228.736-.336 1.488-.332 2.26v10.392h-2.96v-18.48h2.96v2.54c.5-.88 1.196-1.64 2.048-2.212.84-.576 1.844-.88 2.872-.864 1.364-.064 2.7.452 3.668 1.42z" mask="url(#a)"/><path d="m220.7212 125.5776c-.34.648-.812 1.236-1.376 1.72-.612.484-1.3.864-2.04 1.116-.796.272-1.624.42-2.468.42-1.204.008-2.4-.192-3.54-.592-1.064-.352-2.068-.884-2.96-1.58l1.588-2.248c.72.58 1.54 1.032 2.412 1.336.788.28 1.624.444 2.464.452.44.064.892.064 1.328 0 .408-.108.792-.288 1.128-.54.316-.216.588-.504.796-.828.204-.34.3-.732.288-1.132.012-.46-.1-.896-.332-1.288-.228-.36-.524-.68-.876-.916-.408-.296-.86-.528-1.328-.708l-1.588-.588-1.964-.828c-.64-.28-1.244-.656-1.788-1.084-.528-.432-.968-.956-1.292-1.556-.356-.68-.528-1.428-.504-2.204-.004-.716.164-1.444.504-2.084.328-.632.796-1.164 1.372-1.588.58-.428 1.236-.756 1.924-1 .72-.248 1.484-.372 2.248-.372 1.024 0 2.052.14 3.044.42 1.052.288 2.04.788 2.92 1.452l-1.376 2.252c-.692-.484-1.452-.86-2.252-1.124-.756-.236-1.544-.368-2.336-.376-.732 0-1.452.188-2.088.548-.64.336-1.032 1.012-1 1.748-.02.756.38 1.46 1.048 1.828.864.532 1.784.944 2.748 1.26l2.044.836c.668.304 1.304.692 1.876 1.168.568.456 1.036 1.016 1.376 1.664.372.752.56 1.572.54 2.416.012.756-.164 1.5-.504 2.172" mask="url(#a)"/><path d="m224.552 128.368h2.96v-18.508h-2.96z" mask="url(#a)"/><path d="m239.518 128.4528h-.832c-1.408.08-2.804-.32-3.956-1.124-1.08-.984-1.62-2.432-1.46-3.884v-10.836h-2.716v-2.748h2.716v-5.548h3.124v5.508h3.496v2.748h-3.496v10.8c0 1.5.848 2.248 2.54 2.248h1.004v2.752z" mask="url(#a)"/><path d="m250.026 132.5388c-.404 1.1-1.028 2.108-1.832 2.96-.856.884-2.068 1.344-3.296 1.244-.496.044-1 .044-1.5 0-.456-.08-.896-.196-1.332-.368v-2.796c.636.36 1.348.544 2.08.54.476.012.952-.096 1.38-.284.372-.18.7-.428.956-.756.264-.336.492-.696.672-1.08l.54-1.304.872-2.148-7.044-18.564h3.212l5.588 14.636 5.332-14.636h3.084z" mask="url(#a)"/></g><g transform="translate(368)"><path d="m0 130.406649h255.76918v-128.33038926h-255.76918z" fill="#fff"/><path d="m3.54622951 126.913662h122.53796749v-121.34233732h-122.53796749z" fill="#d71920"/><path d="m129.672393 126.913662h122.537968v-121.34233732h-122.537968z" fill="#0090cb"/><g fill="#fff" transform="translate(14.688525 29.621195)"><path d="m55.997482 4.14005195c-.4910164.49038961-1.2464263 1.75792208-1.2464263 3.54285714v11.00675321c0 .8997403-.3210491 1.7703896-.8246557 2.2690909-.3126557.2638962-2.152918 1.8929871-2.2536393 1.9781819h1.0701639c.2874754-.2992208 3.5860984-3.1709091 3.9638033-3.5657143.4196721-.5090909 1.5066229-1.7849351 1.5066229-3.785974 0-.4737663.0083935-10.14649355.0083935-10.57870135 0-1.58337662.6987541-2.46233766 1.1226229-2.88623376.3923935-.43636364 1.6472131-1.50025974 1.9493771-1.78701299l-1.0575738-.00831169c-.2748853.27012987-3.863082 3.48259741-4.2386885 3.81506494"/><path d="m47.8243672 44.1787013 4.0498361 3.4992208h2.7005901c2.7425574 0 5.2752787-1.1490909 6.9203935-2.801039 1.6598033-1.6353247 2.2956065-3.8462337 2.2956065-5.92v-5.7142857c0-1.8971429-1.2170491-3.0337662-1.5590819-3.3620779-.1972459-.1994805-1.3471476-1.2716883-1.3471476-1.2716883v4.3823376s1.2758033 1.3153247 1.5422951 1.572987c1.1876721 1.2571429 1.1708853 3.5574026-2.612459 7.2187013-.6819672.6254546-2.5704918 2.3958442-5.195541 2.3958442z"/><path d="m59.0774557 20.7168831c-.4595409.4758442-.8540327 1.6249351-.8540327 2.6472727v2.1464936h2.1780983c.8813115 0 1.6619017-.6212988 2.2620328-1.1761039.0209836-.027013 0-2.1527273 0-2.1527273s.564459.6462337 1.0848525 1.1761039c.721836-.6815585 2.6502295-2.668052 4.049836-2.668052 2.8222951 0 2.1718033 3.5012987 1.0177049 4.6254546-.3714098.3698701-2.0333114 1.8805195-2.5474098 2.3667532-1.3303607 1.2446753-3.6112787.6587013-3.6112787-2.5787013 0 0-2.4718688 2.2898702-2.8243934 2.5932468-.3483279.32-1.6094426 1.6457143-1.6094426 1.6457143v5.7038961c0 2.7366233-.8834099 3.6987013-1.6660984 4.4654545-.4196721.3574026-3.3783607 3.0025974-3.8798689 3.4805195h-1.0743606s1.9011147-1.6477922 2.3060983-2.0384416c.3923935-.4197402.8414427-1.28.8414427-2.72 0-.3781818-.0377705-8.9641558-.0377705-8.9641558h-14.155541c-4.887082 0-5.9467541-5.4358442-5.9761312-6.88-.0104918-.4197403 0-4.7376623 0-5.4171429 0-.8851948-.5728524-2.3875324-1.4919344-2.8488311h1.3870164c.1615738.0685714 1.047082.4238961 1.047082 3.7381818 0 0-.0650492 3.8607792-.0650492 4.0644156 0 1.6768831 1.3408525 3.6010389 3.2986229 3.6010389.3714099 0 15.9853115-.0166233 15.9853115-.0166233.0083935-.4072728.4973115-2.0363637 1.2212459-2.8924676.4637377-.4841558 3.9050492-3.5885714 4.2680656-3.8961039l1.0365902-.0103896c-.1384918.1392208-1.7878033 1.6166234-2.1906886 2.0051948m5.1871476 3.1979221s1.1624918 1.3215584 1.6073442 1.6623377c1.529705 1.1968831 2.2158689-.1766234 1.2212459-1.7184416-.2266229-.374026-1.181377-.9932468-2.8285901.0561039"/><path d="m47.1665311 34.2009351c0 .7667532-2.4886557 2.7927272-2.6187541 2.9236363-.1762622-.8020779-.7889836-1.7392208-2.6628196-3.544935l2.7089836-2.695065c1.8024918 1.8223377 2.5725901 2.188052 2.5725901 3.3163637"/><path d="m51.8305574 3.4907013c.5896393.53818182 1.7248524 1.99896104 1.0260983 2.69090909-.5791475.61090909-1.5632787 1.59376623-1.5632787 1.59376623-.0398688-.35532467-.9799344-1.20103896-.9799344-1.20103896s.0083935 2.59116883 0 2.90701299c-.0188852 1.16779225-.4385574 1.49818185-.4385574 1.49818185s2.1277378 2.1402597 2.1277378 4.8893506c0 1.3381818.0104918 2.5724675.0104918 2.828052 0 .5651948-.1384918.9974026-.505705 1.4358441-.1930491.2036364-2.2599344 2.2171429-2.5411147 2.4935065-.5539672.5257143-1.2128525.6150649-1.6367213.6150649h-7.4911476c-1.1939672 0-2.4257049-.9205194-2.4257049-1.8348051 0-.2244156.0104918-2.7553247.0104918-2.7553247.3756066.4405195.7952787.9516883 1.7059672.9392208.7805902-.0103897 1.5171148-.5901299 1.7437377-.7937663.2308197-.2057143 5.7096394-5.8638961 5.7096394-5.8638961s-2.5662951-2.3563636-4.2722623-3.47012985c-.814164-.54857143-1.9220984.1412987-2.0857705.86441555-.4973115 2.2462338 0 5.627013 0 5.627013s-1.6514098-1.6498701-2.0563935-2.0550649c-.8561311-.8249351-.8162622-2.7033766.1930492-3.6841559.1573771-.16 1.6598033-1.84935061 3.554623-1.84935061h2.9943606c2.0563935 0 4.1862295 1.94701301 4.1862295 1.94701301s.3860984-.34701301.3860984-.68571431c0-1.01818181-.0104918-3.74441558-.0104918-3.74441558-1.5318033-1.49402597-1.7752131-3.04-1.0114098-3.76103896 1.3555409-1.34441558 1.8234754-1.80987013 1.8234754-1.80987013s-.0188853 1.62701299 1.5464918 3.17922078m-9.3859672 14.9506493c-.7596066.7625975-.8729181.9558442-1.5779672 1.3693507h8.5046557c2.2410492 0 1.8066885-1.4046753 1.3408524-2.1194805-.7910819-1.4649351-3.462295-4.1683117-3.462295-4.1683117s-4.6373771 4.745974-4.8052459 4.9184415"/><path d="m32.7946492 26.0556883h-1.3933115s1.4919344.8083117 1.4919344 2.8966234v6.6950649c0 4.3511689 3.6154754 8.3657143 8.0325246 8.3657143h3.659541c2.2431475 0 2.9691803-.5132467 4.3163279-1.7101299.5350819-.4155844 1.1310164-1.117922 1.3576393-1.385974.7994754-.854026 1.5716721-1.5418182 1.5716721-3.7776623v-2.1735065c0-1.8971429-1.1184262-2.6992208-1.6325245-3.2187013-.3147541-.3158442-1.28-1.2405195-1.28-1.2405195v4.4987013s.9568524.9558442 1.3408524 1.3028571c1.9220984 1.4877923.3672131 4.0789611-1.3870164 4.0789611-.3357377 0-7.5499016.0020779-8.0702951.0020779-3.1139672 0-6.9833442-2.5433766-6.9833442-6.9402597v-3.655065c0-3.7381818-1.024-3.7381818-1.024-3.7381818"/><path d="m41.640918 34.2092468c0 .7688311-2.4970491 2.7968831-2.6334426 2.9277922-.1636721-.802078-.7826885-1.7392208-2.6481311-3.5511689l2.7047868-2.6846753c1.8297705 1.8202597 2.5767869 2.1838961 2.5767869 3.308052"/><path d="m37.8130885 63.0098701v-7.8358441c0-3.0462338-2.4991475-3.8337663-4.3666885-3.8337663-2.4466885 0-3.2020984 2.0384416-3.5126557 2.7075325-.5623607-1.8888312-2.4844591-2.7324675-4.0792132-2.7324675-2.9691803 0-3.7287868 2.7802597-3.7287868 2.7802597s-.0713443-2.6825974-2.4697705-2.6825974l-2.3480656.0103896s1.3471475.5402598 1.3471475 2.8612987l-.0083934 8.7251948c0 2.8654546 1.1876721 2.8903896 1.1876721 2.8903896h3.892459c-.1070164-.024935-1.5024262-1.038961-1.5024262-2.9090909v-7.7257143c.052459-.3366233.6316066-1.5023376 2.3228853-1.5023376.9106885 0 1.9409836.9787013 1.9241967 2.0467532v7.2c0 2.8862338 1.1540983 2.8903896 1.1540983 2.8903896h3.9050492s-1.4940328-.9974026-1.4940328-2.9132467l-.0083934-7.7257143c.151082-.4280519.6546885-1.4815584 2.1403279-1.4815584 1.1540983 0 2.1172459.984935 2.0920655 2.0509091 0 0-.0125901 6.5496103-.0125901 7.1896103.0209836 2.8903897 1.1792787 2.8758442 1.1792787 2.8758442 2.0186229 0 3.892459.0041558 3.892459.0041558s-1.506623-.9870129-1.506623-2.8903896"/><path d="m44.6061115 63.0057143c0 1.9262338 1.4919344 2.8945454 1.4919344 2.8945454s-1.8192787-.0020779-3.8777705-.0020779c0 0-1.1310164.0041559-1.1310164-2.8633766v-8.772987c0-2.2794805-1.3471475-2.8509091-1.3471475-2.8509091h2.280918c.8561312 0 2.5704918 0 2.5704918 3.251948v8.3303897z"/><path d="m56.5938361 52.4781299s-.4427541-1.0181818-2.0354099-1.0181818c-2.4592787 0-3.0237377 2.8301298-3.0237377 2.8301298-.1909508-2.2441558-.8582295-2.8924675-2.5264262-2.8924675h-2.2977049s1.3723278.5464935 1.3723278 2.8633766l-.006295 8.745974c0 2.8592208 1.1016393 2.8883117 1.1016393 2.8883117h3.8798689c-.0944263-.0290909-1.4856394-1.0493506-1.4856394-2.9153246v-7.1584416c.0923279-.6296104.3986885-1.1158442.9883279-1.467013 1.28-.7958441 3.0111475-.6025974 4.0330492.5984416z"/><path d="m74.6174951 53.0321039c1.3198688 0 2.3019016.561039 2.3019016.561039l.0104918-2.1838961h-3.252459v-3.3225974s-.8393443 1.4711688-2.6040656 2.8592207c-1.1100328.9184416-3.4245246 2.0363637-3.4245246 2.0363637l2.4655738.0436363-.0062951 10.0966234c0 2.7719481 1.1939672 2.7719481 1.1939672 2.7719481 2.1319345 0 3.8420984.0020779 3.8420984.0020779s-1.483541-.9620779-1.483541-2.7948052l.0167869-10.0696104z"/><path d="m86.4094426 57.396987c-2.176 2.2774026-3.8966557 1.8867533-5.2207213 3.5449351 0 0 .2077377 2.2587013 1.9011148 3.0254545.5896393.2618182 2.996459 1.0535065 4.5471475-1.654026l-.0083934 2.5787013s-.9883279 1.0202598-4.1778361 1.0202598c-3.7665574 0-6.3916066-2.9194805-6.3916066-6.9651948 0-3.9314286 2.1340328-7.5948052 6.1251148-7.6093507 3.9554098-.0228571 6.0873443 3.1085715 3.2251803 6.0592208m-2.385836-.905974c.6316065-1.1906494 1.1478032-4.1828572-1.0512787-4.0207792-2.530623.1994805-2.0500984 6.8966233-2.0500984 6.8966233.8372459-.905974 2.1151475-1.0888311 3.1013771-2.8758441"/><path d="m42.8204066 50.2115325c1.0219016 0 1.798295-.7625974 1.798295-1.732987 0-1.0057143-.7763934-1.7662338-1.798295-1.7662338-1.0302951 0-1.7710164.7605195-1.7710164 1.7662338 0 .9703896.7407213 1.732987 1.7710164 1.732987"/><path d="m94.9474623 61.972987c.0314754 1.0368831-.8897049 2.3646753-2.8621639 2.3646753-1.9388853 0-2.7950164-2.052987-2.7950164-2.052987l-.0146886 2.6223377s1.4394755.9932467 3.6700328.9932467c2.6754099 0 5.3067541-1.9740259 5.2270164-4.718961-.0230819-.9994805-.3630164-1.8576623-.8897049-2.5579221-.9106885-1.1885714-2.5432131-2.0342857-3.8337049-2.8072727-1.7584262-.9787013-1.5213115-3.1605195 1.0617705-2.9319481 1.9241967.1537663 2.7530492 1.9948052 2.7530492 1.9948052v-2.4457142s-1.4940328-1.1283117-3.7455738-1.1283117c-2.3207869 0-4.4023607 1.5127272-4.3415082 3.4618181.0461639 1.7205195.7596065 2.8072728 2.1864918 3.8524676.5602623.4010389 1.2359344.8332467 2.0102295 1.2633766 1.1415082.6067532 1.5611803 1.3922078 1.5737705 2.0903896"/><path d="m61.117482 64.2437403c-1.2317377 0-2.0773771-.6337663-2.0773771-2.0155845 0-3.2706493 3.0132459-3.9272727 3.810623-4.9142857v6.1277922c-.0335738.0187013-.5245902.802078-1.7332459.802078m2.0836721-9.6311689c0 1.3963637-1.2149508 2.0509091-1.9934426 2.3833767-2.350164 1.0161038-5.3046558 2.0903896-5.3046558 5.4192207 0 2.2628572 1.6262295 3.5054546 3.9428197 3.5054546 1.7353443 0 2.6523279-.8727273 3.0594098-1.7433766.2664918 1.6457142 1.1121312 1.7184415 1.1121312 1.7184415 2.0144262 0 3.863082.0041559 3.863082.0041559s-1.5024263-.989091-1.5024263-2.882078v-8.1683117c0-1.9532467-2.1990819-3.4638961-4.5156721-3.4638961-2.205377 0-3.6238689 1.0285715-3.6238689 1.0285715v2.5558441s.768-1.9948052 2.8201968-1.9948052c1.6535082 0 2.1424262.7896104 2.1424262 1.6374026"/><path d="m148.489443 46.5265455v3.52l4.012065-3.52z"/><path d="m145.038479 46.4797922h-6.909902c-4.712918 0-9.341902 3.5407792-9.341902 9.5771429 0 5.7620779 4.473705 9.8618181 9.874886 9.8618181 5.896393 0 9.839213-4.6628571 9.839213-10.025974v-5.627013h-3.462295v5.627013c0 3.0420779-2.230558 6.7636364-6.370623 6.7636364-3.508459 0-6.37482-2.961039-6.379017-6.5994805 0-2.6244156 1.842361-6.3522078 6.704263-6.3522078h5.831344l3.676328-3.2249351v-6.1215584h-3.462295zm18.006032-.6732467c-3.206295 0-6.221639 1.7870129-7.182688 3.571948v-2.8966234h-3.325902v18.9693507h3.684722v-11.7485714c0-3.3579221 3.680524-5.0368832 6.003409-5.0368832 4.001574 0 4.817837 2.6202598 4.817837 5.7163637v11.0690909h3.527344v-11.4701299c0-6.5890909-3.707803-8.1745454-7.524722-8.1745454zm37.23541 16.9163636c-1.697573 0-2.186491-1.3277922-2.186491-2.6909091v-10.4436364h5.852327v-3.1106493h-5.852327v-6.1194805h-3.476984v20.3761039c0 1.9303896.942164 5.1844155 5.168262 5.1844155 1.573771 0 3.275541-.3116883 4.36459-.8l-.982032-3.0711688c-1.303082.5153247-2.234755.6753247-2.887345.6753247zm23.434492-10.4914286c0-2.771948-2.352262-6.1402597-8.93482-6.1402597h-.004196s-.004197-.0020779-.010492 0c-3.976394 0-7.648525 2.1174026-7.648525 2.1174026l1.489836 2.5163636s2.490754-1.6228571 6.146099-1.6228571c5.113705 0 5.562754 2.3168831 5.573246 3.4036363v.2888312s-3.890361.3324675-6.192263.5485714c-3.302819.2971429-5.411672 1.2945455-6.702164 2.5309091-1.286295 1.2301299-1.754229 2.7054546-1.754229 3.9812987v.0415585c0 3.9812987 3.873574 6.0176623 8.185705 6.0176623 3.367869 0 6.580459-1.6976623 6.580459-1.6976623v1.2446753h3.271344zm-10.044852 10.8093507c-1.307279 0-4.385574-.5132468-4.385574-3.5781818 0-2.2857143 2.774033-3.2124676 5.080131-3.4098702 1.615738-.1433766 5.988721-.507013 5.988721-.507013v4.9994806c-1.181377 1.6228571-3.934426 2.4955844-6.683278 2.4955844zm-22.446164-10.8093507c0-3.251948-2.883148-6.1402597-8.949508-6.1402597-3.858886 0-7.646427 2.1174026-7.646427 2.1174026l1.483541 2.5163636s2.494951-1.6228571 6.146099-1.6228571c5.12 0 5.571147 2.3168831 5.577442 3.4036363v.2888312s-3.89036.3407792-6.190164.5485714c-3.697311.3262338-8.46059 2.0051948-8.46059 6.5537663 0 3.9646753 3.875672 6.0176623 8.183607 6.0176623 3.372065 0 6.584655-1.6976623 6.584655-1.6976623v1.2446753h3.271345zm-10.044853 10.8093507c-1.307278 0-4.385574-.5132468-4.385574-3.5781818 0-2.2857143 2.776132-3.2124676 5.080132-3.4098702 1.615737-.1433766 5.984524-.507013 5.984524-.507013v4.9994806c-1.17718 1.6228571-3.930229 2.4955844-6.679082 2.4955844z"/><path d="m13.3634098 63.9372468c-.4511475 0-3.86098357-.0041559-4.32262291-.0041559-1.36393443 0-1.26531148-1.0825974-1.37442623-2.052987v-6.1797403s.93796721-.0228571 1.98504918-.0228571c1.20445906 0 2.71108196-.1683117 4.15895086.6815584 0 0-1.0491804-2.5205194-4.16944267-2.5205194h-1.97455737v-1.2093507-.7522078s0-1.7225974-.41757377-2.2025974c0 0 2.64393442.0124675 2.83278691.0124675 2.4781639.0041559 4.3939672-.0477922 6.3958032 1.2197403 0 0-.3881967-3.2124675-5.1955409-3.2124675h-9.20550823s1.55278688 1.2675324 1.55278688 4.1683117l-.01678688 11.2103896c0 2.7968831 1.13101639 2.8405194 1.13101639 2.8405194h3.17481967 1.46045902 4.55554095c2.0857705 0 2.8201968-1.4067532 2.8201968-2.2483116l.0209836-1.0929871s-.663082 1.3651949-3.4119345 1.3651949"/><path d="m26.210623 117.435636h-3.2167869v9.122078h-2.5495082v-9.122078h-3.2020984v-2.048831h8.9683935z"/><path d="m38.7168525 126.556883h-2.5495082v-4.546493h-4.6730492v4.546493h-2.5411148v-11.170909h2.5411148v4.457143h4.6730492v-4.457143h2.5495082z"/><path d="m49.2865049 126.556883h-6.7651147v-11.170909h6.504918v2.048831h-3.9638033v2.485195h3.6889181v2.040519h-3.6889181v2.557923h4.224z"/><path d="m64.7547803 126.556883h-6.7651147v-11.170909h6.504918v2.048831h-3.9638033v2.485195h3.6889181v2.040519h-3.6889181v2.557923h4.224z"/><path d="m80.6439869 126.556883h-2.5096394v-6.684675c0-.718961.0314755-1.516883.0944263-2.389611h-.0629508c-.1300984.687793-.249705 1.178182-.354623 1.481559l-2.6439344 7.592727h-2.0752787l-2.6900984-7.515844c-.0734426-.203636-.1930492-.723117-.3546229-1.558442h-.0713443c.0692459 1.099221.1028197 2.067533.1028197 2.896624v6.177662h-2.2893115v-11.170909h3.7203935l2.3060983 6.624416c.1825574.525714.3168525 1.05974.4007869 1.593766h.0461639c.1426886-.617143.2916722-1.155325.4490492-1.61039l2.3060984-6.607792h3.6259672z"/><path d="m87.9185836 115.386182v1.947013h-.9442623v7.274805h.9442623v1.949091h-4.4296393v-1.949091h.9442623v-7.274805h-.9442623v-1.947013z"/><path d="m100.227148 126.556883h-2.9188201l-1.7542295-2.873766c-.1300984-.216104-.2580984-.411429-.377705-.581818-.1196065-.172468-.2434098-.32-.3672131-.442598-.1217049-.124675-.2497049-.214026-.384-.280519-.1342951-.066494-.2790819-.097663-.436459-.097663h-.6840656v4.276364h-2.5411147v-11.170909h4.0267541c2.7383606 0 4.1064918 1.011948 4.1064918 3.04 0 .386494-.0587541.745974-.180459 1.076364-.1196066.332467-.2916722.627532-.512.893506-.2203279.263896-.4868197.492468-.7973771.683637-.3126557.193246-.6609836.344935-1.0428852.452987v.031168c.1678688.051948.331541.135065.488918.253507.1573771.116363.308459.253506.4553443.407273.1468852.155844.2874754.324155.4196721.504935.1342951.176623.256.353246.3672131.525714zm-6.9224923-9.286234v3.108572h1.1016394c.5455738 0 .9820328-.155844 1.3135738-.465455.3357377-.317922.5036065-.708571.5036065-1.178182 0-.974545-.5917377-1.464935-1.7710164-1.464935z"/><path d="m112.424918 126.556883h-2.769836l-.801574-2.483117h-4.012065l-.795279 2.483117h-2.753049l4.106492-11.170909h3.013245zm-4.152656-4.417662-1.212852-3.754805c-.088131-.278442-.151082-.615065-.188853-1.005715h-.06295c-.025181.328312-.09023.652468-.195148.976624l-1.227541 3.783896z"/><path d="m121.85621 117.435636h-3.218885v9.122078h-2.549509v-9.122078h-3.2v-2.048831h8.968394z"/><path d="m131.361364 126.556883h-6.763016v-11.170909h6.502819v2.048831h-3.961705v2.485195h3.688918v2.040519h-3.688918v2.557923h4.221902z"/><path d="m1.68309508 11.8451948v-2.49350649c.45744262.3761039.95055738.66077919 1.48773771.85402599.53088524.1890909 1.07436065.2825974 1.61783606.2825974.32104918 0 .60222951-.0290909.83934426-.0851948.23921312-.0581818.43645902-.1392208.59803279-.2389611.15947541-.0997402.27698361-.2202597.35672131-.35740255.07973771-.13714286.1175082-.28675325.1175082-.44675325 0-.22025974-.06295082-.41558442-.1867541-.58597403-.128-.17246753-.30006557-.33038961-.51409836-.47376623-.21822951-.14545455-.47842623-.28675325-.7784918-.41974026-.29796722-.13714286-.6190164-.27220779-.9652459-.41350649-.88131148-.36363637-1.53809836-.80831169-1.97036066-1.33194805-.43226229-.52571429-.6504918-1.16155845-.6504918-1.90129871 0-.58181818.11750819-1.0825974.35252459-1.50025974.23921311-.41974026.56026229-.76467532.9652459-1.03272727.40708197-.27012987.87711475-.46753247 1.41009836-.59636364.53718033-.12675324 1.1037377-.19116883 1.70177049-.19116883.58754098 0 1.10583607.0374026 1.55908197.10805195.45744262.06649351.87501639.17662338 1.25481967.32v2.32935065c-.1867541-.12675325-.39239344-.2451948-.61481967-.34285714-.22452459-.09766234-.4532459-.18077922-.6882623-.24519481-.23921311-.06441558-.47003278-.11220779-.70504918-.1412987-.23291803-.03324675-.45744262-.04987013-.66308196-.04987013-.29167214 0-.5497705.02701299-.78898361.08311688-.23501639.05402598-.43645902.1309091-.59803279.23064936-.16367213.09766233-.28747541.21402597-.37770492.35532467-.0902295.13506494-.13219672.28883117-.13219672.4612987 0 .18701299.0482623.35532468.14898361.50493507.10072131.14545454.24340984.28467532.42596721.41974026.18255738.13090909.40498361.26181818.66727869.3864935.26229508.13090909.5602623.25974026.88970492.39688312.44904918.18493506.85613115.38233766 1.21704918.59428571.35462295.20987013.66727869.44883117.92327869.71272728.256.2638961.4532459.56935065.58963934.90597402.13639344.34077922.20563935.73766234.20563935 1.18857143 0 .62337662-.12170492 1.14701303-.36091804 1.56883113-.23711475.4238961-.56236065.7688312-.97154098 1.0306494-.40708197.2618182-.8855082.4488312-1.42688525.5672727-.54347541.1101299-1.1142295.1703896-1.71855737.1703896-.6190164 0-1.20865574-.0561039-1.76681967-.1558441-.55816394-.1038961-1.04288525-.2597403-1.44996722-.4675325" mask="url(#b)" transform="translate(132.196721 114.285714)"/><path d="m10.5990295 11.5245714c-1.09954098.6275325-2.46977048.9433767-4.10859016.9433767-1.81088524 0-3.24196721-.4987013-4.29114754-1.494026-1.0449836-.99116885-1.56537705-2.36259742-1.56537705-4.10805197 0-1.75584416.5707541-3.18545455 1.71436066-4.29506494 1.1415082-1.10337662 2.66281967-1.65610389 4.56183607-1.65610389 1.19606557 0 2.24944262.16415584 3.16222952.49038961v2.36051948c-.87081969-.50077922-1.93468854-.74597403-3.19370493-.74597403-1.05547541 0-1.91160656.33662338-2.57678689 1.01402598-.66308197.6774026-.99462295 1.58337662-.99462295 2.71584415 0 1.14701299.29586885 2.03636364.89180328 2.66181819.59383606.62961042 1.39960656.94545452 2.41311475.94545452.60852459 0 1.08904918-.0872727 1.44577049-.2597402v-2.17766238h-2.25783606v-2.01142857h4.79895081z" mask="url(#c)" transform="translate(148.983607 114.285714)"/><path d="m172.46678 126.556883h-2.918819l-1.756328-2.873766c-.132197-.216104-.256-.411429-.377705-.581818-.119607-.172468-.241312-.32-.365115-.442598-.121705-.124675-.249705-.214026-.384-.280519-.136393-.066494-.28118-.097663-.436459-.097663h-.684065v4.276364h-2.541115v-11.170909h4.026754c2.736262 0 4.106492 1.011948 4.106492 3.04 0 .386494-.058754.745974-.180459 1.076364-.121705.332467-.291672.627532-.512.893506-.220328.263896-.48682.492468-.799476.683637-.310557.193246-.660983.344935-1.040787.452987v.031168c.165771.051948.329443.135065.488918.253507.155279.116363.306361.253506.455345.407273.144787.155844.287475.324155.419672.504935.134295.176623.256.353246.365115.525714zm-6.922491-9.286234v3.108572h1.099541c.545573 0 .986229-.155844 1.313573-.465455.335738-.317922.505705-.708571.505705-1.178182 0-.974545-.591738-1.464935-1.771016-1.464935z"/><path d="m7.28949508 12.4681558c-1.61783606 0-2.93350819-.5194805-3.95331147-1.5625974-1.01560656-1.04103892-1.52340984-2.39792204-1.52340984-4.07064931 0-1.76623377.51409836-3.19376623 1.54859016-4.2825974 1.03449181-1.09090909 2.40262296-1.63948052 4.10859017-1.63948052 1.60734426 0 2.9104262.52155844 3.9029508 1.56675325.9967213 1.04311688 1.4898361 2.41870129 1.4898361 4.12883116 0 1.75376624-.5140984 3.1709091-1.5443935 4.24727272-1.030295 1.0722078-2.37324586 1.6124675-4.02885242 1.6124675m.1070164-9.39012983c-.89180328 0-1.59685246.33246754-2.12354099.99532468-.52459016.66077922-.78478688 1.53766234-.78478688 2.63064935 0 1.10545455.26019672 1.98025974.78478688 2.62233766.52668853.64623377 1.2107541.96831174 2.06059017.96831174.87501639 0 1.57167213-.31168836 2.08577049-.93922083.51619672-.62753247.77219675-1.49610389.77219675-2.60571428 0-1.15948052-.24970495-2.05922078-.74701642-2.70545455-.49940984-.64207792-1.17927869-.96623377-2.048-.96623377" mask="url(#d)" transform="translate(172.065574 114.285714)"/><path d="m197.22303 121.719273c0 3.355844-1.577968 5.032727-4.733902 5.032727-3.063607 0-4.59541-1.637403-4.59541-4.914286v-6.451948h2.54741v6.483117c0 1.805714.715541 2.709611 2.140328 2.709611 1.401705 0 2.102557-.87065 2.102557-2.616104v-6.576624h2.539017z"/><path d="m203.4432 122.70961v3.848312h-2.541115v-11.170909h3.982689c2.843278 0 4.263869 1.186493 4.263869 3.559481 0 1.122077-.407082 2.030129-1.223345 2.724155-.816262.694026-1.905311 1.038961-3.269246 1.038961zm0-5.392207v3.484675h.99882c1.353442 0 2.031213-.588052 2.031213-1.764156 0-1.144935-.677771-1.720519-2.031213-1.720519z"/></g></g></g></svg>